<svg width="70" height="70" viewBox="0 0 70 70" fill="none" xmlns="http://www.w3.org/2000/svg">
<g clip-path="url(#clip0)">
<path d="M66.9627 50.692L66.9614 50.6908L48.4919 32.0859L48.3036 31.8962L48.3568 31.6342L50.4066 21.5378L50.5249 20.9554L51.0785 21.1716C51.55 21.3557 52.0513 21.452 52.5574 21.4558H52.5696H52.5755V21.4559C54.9075 21.4834 56.8202 19.6154 56.8479 17.2834C56.8755 14.9515 55.0074 13.0387 52.6754 13.011C50.3435 12.9835 48.4307 14.8516 48.4031 17.1835C48.3972 17.6826 48.4797 18.1786 48.647 18.6487L48.8563 19.237L48.2365 19.3126L37.3865 20.6368L37.1439 20.6664L36.9715 20.4931L19.2731 2.70263L19.2705 2.70002C19.1472 2.57412 18.9792 2.5023 18.8033 2.50002C18.6294 2.50179 18.4632 2.57135 18.3399 2.694L18.3398 2.69405L15.0322 5.983C15.0321 5.98313 15.032 5.98326 15.0318 5.98339C14.772 6.24375 14.7721 6.66547 15.0322 6.92567L15.0347 6.92814L15.0347 6.92815L16.815 8.73415L17.0754 8.99825L16.8982 9.32404C10.1076 21.8108 12.3116 37.2732 22.3199 47.3653C22.3701 47.4124 22.4282 47.4508 22.4916 47.4788L22.854 47.6385L22.7815 48.0279C22.7135 48.3931 22.678 48.7636 22.6756 49.1349V62.6667V63.1667H22.1756H8.17621C5.23199 63.1701 2.84591 65.5561 2.84229 68.5003V70.8333C2.84229 71.2015 3.1408 71.5 3.50895 71.5H57.1756C57.5438 71.5 57.8423 71.2015 57.8423 70.8333V68.5006C57.8388 65.5563 55.4527 63.1701 52.5084 63.1667H38.509H38.009V62.6667V56.6688V56.0531L38.6116 56.1795C40.7712 56.6324 42.9717 56.8633 45.1783 56.8688C50.4723 56.8629 55.682 55.543 60.34 53.0275L60.6688 52.85L60.9322 53.115L62.7219 54.9151L62.7244 54.9176C62.8478 55.0436 63.0158 55.1154 63.1917 55.1176C63.3655 55.1159 63.5317 55.0463 63.655 54.9237L63.6551 54.9236L66.9627 51.6347V50.692ZM66.9627 50.692C67.2226 50.952 67.2229 51.3732 66.9637 51.6336L66.9627 50.692ZM50.572 15.2803L49.713 16.1348H49.987C49.8285 16.4902 49.7433 16.8778 49.7413 17.2745C49.7331 18.8394 50.9952 20.1143 52.5599 20.1225H52.5625H52.5694C52.5694 20.1225 52.5694 20.1225 52.5695 20.1225C53.3185 20.1226 54.0371 19.8262 54.5681 19.298C55.6775 18.1946 55.6825 16.4006 54.5789 15.2911C53.4755 14.1817 51.6815 14.1767 50.572 15.2803ZM48.6683 23.4005L48.9971 21.7822L47.8258 22.9464L43.9455 26.8034L43.5908 27.1559L43.9434 27.5105L46.5147 30.097L47.1733 30.7595L47.3593 29.844L48.6683 23.4005ZM47.2055 21.6828L48.2389 20.6554L46.7924 20.8318L39.3432 21.7407L38.3281 21.8645L39.0493 22.5896L42.2985 25.8563L42.651 26.2107L43.0055 25.8583L47.2055 21.6828ZM56.009 70.1667H56.509V69.6667V68.5C56.509 66.2908 54.7181 64.5 52.509 64.5H8.17562C5.96646 64.5 4.17562 66.2908 4.17562 68.5V69.6667V70.1667H4.67562H56.009ZM36.6756 60.3333V59.8333H36.1756H24.509H24.009V60.3333V62.6667V63.1667H24.509H36.1756H36.6756V62.6667V60.3333ZM24.009 58V58.5H24.509H36.1756H36.6756V58V49.1333C36.6756 45.9687 33.773 43.5 30.3423 43.5C26.9116 43.5 24.009 45.9687 24.009 49.1333V58ZM38.009 54.29V54.6897L38.3989 54.7777C45.3894 56.3552 52.7114 55.4404 59.0987 52.1912L59.7106 51.8798L59.2265 51.393L18.5351 10.4682L18.0501 9.98041L17.7358 10.5923C11.748 22.248 13.7798 36.4151 22.8024 45.9181L23.2469 46.3863L23.589 45.8387C25.0391 43.5176 27.598 42.1247 30.3346 42.1666L30.3346 42.1667H30.3423C34.6126 42.1667 38.009 45.3335 38.009 49.1333V54.29ZM62.8492 53.1469L63.2017 53.5013L63.5562 53.149L65.2117 51.504L65.5665 51.1515L65.2139 50.7968L36.5429 21.958C36.5291 21.9414 36.51 21.9204 36.4864 21.8996C36.483 21.8966 36.4793 21.8934 36.4753 21.8901L19.1468 4.46378L18.7939 4.10886L18.4394 4.46215L16.7885 6.10715L16.4341 6.46033L16.7875 6.81451L18.4377 8.46816L18.4384 8.46884L61.2053 51.4937L61.2054 51.4937L62.8492 53.1469Z" fill="#212121" stroke="black"/>
<path d="M30.3527 44.3333H30.3422C28.4091 44.3303 26.8398 45.895 26.8369 47.828C26.834 49.761 28.3986 51.3303 30.3317 51.3333H30.3422C32.2752 51.3362 33.8445 49.7715 33.8474 47.8385C33.8503 45.9055 32.2857 44.3362 30.3527 44.3333ZM31.1693 48.6604C30.9497 48.8789 30.6521 49.0011 30.3422 48.9999C29.6979 48.9966 29.1783 48.4716 29.1816 47.8273C29.1832 47.5188 29.3069 47.2237 29.5255 47.0061C29.7426 46.7901 30.0359 46.6682 30.3422 46.6666C30.9865 46.6699 31.5061 47.1949 31.5027 47.8392C31.5011 48.1477 31.3774 48.4428 31.1588 48.6604H31.1693Z" fill="#2196F3"/>
</g>
<defs>
<clipPath id="clip0">
<rect width="70" height="70" fill="white"/>
</clipPath>
</defs>
</svg>
